<!--?xml version="1.0" encoding="utf-8"?-->
<!-- Generator: Adobe Illustrator 18.1.1, SVG Export Plug-In . SVG Version: 6.00 Build 0)  -->

<svg version="1.1" id="_x32_" xmlns="http://www.w3.org/2000/svg" xmlns:xlink="http://www.w3.org/1999/xlink" x="0px" y="0px" viewBox="0 0 512 512" style="width: 32px; height: 32px; opacity: 1;" xml:space="preserve">
<style type="text/css">
	.st0{fill:#4B4B4B;}
</style>
<g>
	<path class="st0" d="M451.044,48.894H60.956C27.353,48.909,0.008,76.255,0,109.849v292.309
		c0.008,33.603,27.353,60.94,60.956,60.948h390.088C484.655,463.099,512,435.761,512,402.158V109.849
		C512,76.255,484.655,48.909,451.044,48.894z M120.977,433.084H60.956c-8.249,0-16.018-3.217-21.871-9.058
		c-5.841-5.856-9.059-13.626-9.063-21.867V109.849c0.004-8.24,3.222-16.01,9.059-21.859c5.856-5.848,13.626-9.066,21.879-9.074
		h32.904v197.951c0,9.028,7.342,16.373,16.366,16.373h10.748V433.084z M245.732,433.084H141.518V293.241h12.341
		c9.024,0,16.366-7.346,16.366-16.373V78.917h48.397v197.951c0,9.028,7.338,16.373,16.362,16.373h10.749V433.084z M370.49,433.084
		H266.272V293.241h12.345c9.024,0,16.362-7.346,16.362-16.373V78.917h48.398v197.951c0,9.028,7.338,16.373,16.358,16.373h10.756
		V433.084z M481.986,402.158c-0.008,8.241-3.225,16.011-9.059,21.867c-5.864,5.841-13.626,9.058-21.883,9.058H391.03V293.241h12.345
		c9.02,0,16.358-7.346,16.358-16.373V78.917h31.31c8.257,0.008,16.019,3.225,21.875,9.066c5.842,5.856,9.059,13.626,9.067,21.866
		V402.158z" style="fill: rgb(240, 240, 240);"></path>
</g>
</svg>
