<?xml version="1.0" standalone="no"?>
<!DOCTYPE svg PUBLIC "-//W3C//DTD SVG 20010904//EN"
 "http://www.w3.org/TR/2001/REC-SVG-20010904/DTD/svg10.dtd">
<svg version="1.0" xmlns="http://www.w3.org/2000/svg"
 width="192.000000pt" height="192.000000pt" viewBox="0 0 192.000000 192.000000"
 preserveAspectRatio="xMidYMid meet">

<g transform="translate(0.000000,192.000000) scale(0.100000,-0.100000)"
fill="#000000" stroke="none">
<path d="M797 1904 c-97 -17 -180 -45 -271 -91 -75 -37 -185 -114 -225 -157
l-24 -26 61 0 c34 0 62 -2 62 -5 0 -11 -32 -70 -48 -87 -13 -16 -13 -20 2 -43
14 -22 24 -25 71 -25 62 0 68 -10 35 -53 l-21 -26 28 -30 28 -31 120 10 c66 5
132 10 147 10 l27 0 -50 -82 c-27 -46 -59 -90 -70 -98 -20 -16 -19 -17 16 -63
20 -26 42 -47 50 -47 8 0 60 5 115 11 56 6 103 9 106 7 8 -9 -76 -129 -97
-136 l-20 -8 20 -26 c12 -14 21 -30 21 -35 0 -6 17 -28 38 -51 l38 -41 164 25
c90 13 167 23 171 22 4 -2 -20 -45 -54 -95 -52 -77 -68 -95 -99 -104 -35 -11
-36 -13 -22 -34 8 -12 11 -25 7 -28 -3 -4 0 -7 9 -7 8 0 45 -36 82 -80 55 -65
72 -79 89 -75 12 3 130 30 261 59 178 40 243 58 253 72 18 25 51 116 74 204
81 310 -19 660 -255 896 -222 221 -538 322 -839 268z"/>
</g>
</svg>
